<?xml version="1.0" encoding="UTF-8"?>
<svg width="32" height="32" viewBox="0 0 32 32" fill="none" xmlns="http://www.w3.org/2000/svg">
  <!-- Document with folded corner -->
  <path d="M9 4h10l5 5v19a2 2 0 0 1-2 2H9a2 2 0 0 1-2-2V6a2 2 0 0 1 2-2z" fill="#FFFFFF"/>
  <path d="M9 4h10l5 5v19a2 2 0 0 1-2 2H9a2 2 0 0 1-2-2V6a2 2 0 0 1 2-2z" stroke="#374151" stroke-width="1.5"/>
  <path d="M19 4v5h5" fill="#E5E7EB"/>
  <path d="M19 4v5h5" stroke="#374151" stroke-width="1.5"/>

  <!-- Image placeholder box -->
  <rect x="10.5" y="9.5" width="11" height="8" rx="1.5" fill="#ECFDF5" stroke="#10B981" stroke-width="1.2"/>
  <!-- Mountain -->
  <path d="M12 16l2.8-3.5 1.8 2.2 1.2-1.6L20 16H12z" fill="#10B981"/>
  <!-- Sun -->
  <circle cx="13.8" cy="12.3" r="0.9" fill="#10B981"/>

  <!-- Text lines -->
  <rect x="10.5" y="19.5" width="11" height="1.6" rx="0.8" fill="#E5E7EB"/>
  <rect x="10.5" y="22.0" width="11" height="1.6" rx="0.8" fill="#E5E7EB"/>
  <rect x="10.5" y="24.5" width="8" height="1.6" rx="0.8" fill="#E5E7EB"/>
</svg>
